<svg xmlns="http://www.w3.org/2000/svg" width="24" height="24" viewBox="0 0 24 24">
    <path d="M21.75 12A9.75 9.75 0 1 0 12 21.75 9.75 9.75 0 0 0 21.75 12zM0 12a12 12 0 1 1 12 12A12 12 0 0 1 0 12zm7.959-4.252A2.629 2.629 0 0 1 10.434 6h2.733a2.96 2.96 0 0 1 1.472 5.527l-1.514.867a1.125 1.125 0 0 1-2.25-.019v-.633a1.123 1.123 0 0 1 .567-.975l2.077-1.191a.708.708 0 0 0-.352-1.322h-2.733a.369.369 0 0 0-.352.248l-.019.056a1.124 1.124 0 1 1-2.119-.75l.019-.056zM10.5 16.5A1.5 1.5 0 1 1 12 18a1.5 1.5 0 0 1-1.5-1.5z" style="fill:#fff"/>
</svg>
