<svg xmlns="http://www.w3.org/2000/svg" width="61" height="61" viewBox="0 0 61 61">
    <defs>
        <filter id="cwzac3tmia" x="0" y="0" width="61" height="61" filterUnits="userSpaceOnUse">
            <feOffset/>
            <feGaussianBlur stdDeviation="4" result="blur"/>
            <feFlood flood-color="#85faff"/>
            <feComposite operator="in" in2="blur"/>
            <feComposite in="SourceGraphic"/>
        </filter>
    </defs>
    <g style="filter:url(#cwzac3tmia)">
        <path data-name="i_timer" d="M18 0a2.248 2.248 0 0 0-2.25 2.25v4.5a2.25 2.25 0 0 0 4.5 0V4.69a13.5 13.5 0 1 1-11.7 3.67A2.252 2.252 0 1 0 5.4 5.14 18 18 0 1 0 18 0zm-4.43 11.18a1.685 1.685 0 0 0-2.384 2.384l5.625 5.625A1.685 1.685 0 0 0 19.2 16.8z" transform="translate(12.5 12.5)" style="fill:#5198a8;stroke:transparent;stroke-miterlimit:10"/>
    </g>
</svg>
